<?xml version="1.0" standalone="no"?>
<!DOCTYPE svg PUBLIC "-//W3C//DTD SVG 20010904//EN"
 "http://www.w3.org/TR/2001/REC-SVG-20010904/DTD/svg10.dtd">
<svg version="1.0" xmlns="http://www.w3.org/2000/svg"
 width="227.000000pt" height="215.000000pt" viewBox="0 0 227.000000 215.000000"
 preserveAspectRatio="xMidYMid meet">

<g transform="translate(0.000000,215.000000) scale(0.100000,-0.100000)"
fill="#000000" stroke="none">
<path d="M550 2140 c0 -5 7 -7 15 -4 8 4 15 8 15 10 0 2 -7 4 -15 4 -8 0 -15
-4 -15 -10z"/>
<path d="M610 2125 c-10 -27 -9 -27 -62 -30 -26 -1 -38 2 -38 11 0 8 -3 14 -7
14 -15 0 -73 -40 -73 -50 0 -16 53 -120 62 -120 4 0 12 9 19 21 9 17 17 20 41
15 26 -5 46 -17 106 -67 6 -5 12 -19 12 -29 0 -11 4 -20 10 -20 5 0 7 -8 4
-17 -5 -16 -4 -16 8 -2 21 25 57 41 79 34 13 -5 31 2 54 19 41 31 47 32 70 6
22 -24 77 -26 128 -5 20 8 48 15 62 15 30 0 32 11 5 28 -47 29 -11 62 69 62
47 0 53 -3 73 -35 26 -39 41 -42 116 -20 41 12 53 21 58 41 8 30 57 58 89 50
18 -5 24 -15 30 -53 4 -31 16 -55 35 -75 34 -33 58 -35 93 -8 14 11 29 20 34
20 5 0 19 14 31 30 25 34 44 37 86 15 35 -19 40 -19 32 0 -3 9 0 15 9 15 17 0
20 16 5 25 -6 3 -10 35 -10 71 l0 64 -44 -2 c-24 -2 -42 -7 -39 -11 8 -12 -18
-37 -38 -37 -14 0 -19 7 -19 25 l0 25 -218 0 -218 0 -11 -30 c-6 -17 -23 -34
-37 -40 -15 -5 -29 -17 -32 -25 -4 -8 -12 -15 -20 -15 -18 0 -54 31 -54 47 0
6 -5 15 -11 19 -12 7 -89 -15 -89 -26 0 -4 -15 -14 -32 -21 -18 -7 -48 -23
-67 -36 -39 -26 -71 -17 -71 20 0 29 -21 75 -38 82 -9 3 -10 -3 -6 -21 5 -18
1 -31 -14 -45 -28 -26 -47 -24 -88 7 -32 25 -47 64 -24 64 6 0 10 5 10 10 0 6
-14 10 -30 10 -23 0 -33 -6 -40 -25z"/>
<path d="M2036 1934 c-10 -9 -25 -12 -45 -8 -18 4 -37 2 -46 -6 -8 -7 -26 -9
-43 -5 -27 6 -30 4 -35 -27 -3 -18 -3 -60 1 -93 9 -77 28 -83 81 -26 21 23 43
41 49 41 19 0 52 -52 52 -82 0 -28 1 -29 22 -14 27 19 59 21 76 4 10 -10 14
-8 18 10 5 18 13 22 43 22 50 0 61 14 61 81 0 64 7 58 -105 87 -22 6 -57 15
-78 20 -29 8 -40 7 -51 -4z"/>
<path d="M1440 1904 c0 -8 5 -12 10 -9 6 3 10 10 10 16 0 5 -4 9 -10 9 -5 0
-10 -7 -10 -16z"/>
<path d="M1657 1837 c-17 -7 -26 -16 -22 -25 3 -7 5 -20 5 -28 0 -8 7 -14 15
-14 10 0 15 11 16 33 1 30 1 31 9 7 8 -24 8 -23 9 8 1 17 0 32 -1 31 -2 -1
-16 -6 -31 -12z"/>
<path d="M591 1811 c-8 -6 -11 -16 -7 -27 5 -12 10 -14 17 -7 16 16 7 45 -10
34z"/>
<path d="M1405 1748 c4 -12 15 -31 26 -40 11 -9 18 -20 17 -25 -1 -4 16 -47
39 -94 33 -68 58 -103 118 -163 41 -41 79 -86 84 -98 9 -24 0 -51 -26 -76 -24
-24 -16 -46 30 -75 15 -10 27 -22 27 -28 0 -13 -20 -33 -42 -42 -10 -3 -18
-14 -18 -23 0 -20 -58 40 -71 73 -5 13 -15 23 -23 23 -7 0 -16 7 -20 15 -3 8
-16 15 -28 15 -22 1 -22 1 -5 15 18 13 18 15 2 50 -22 46 -13 56 23 24 15 -14
40 -33 56 -43 23 -15 30 -16 37 -5 6 10 0 16 -20 21 -16 5 -34 15 -41 23 -7 8
-18 15 -25 15 -19 0 -74 57 -81 84 -6 25 -43 50 -76 51 -14 0 -25 10 -32 30
-14 40 -46 36 -46 -5 0 -23 -15 -45 -67 -97 -38 -38 -81 -80 -98 -94 -37 -32
-65 -66 -65 -79 0 -6 9 -1 20 10 30 30 71 44 82 28 7 -9 8 -4 4 13 -7 33 5 43
72 59 28 6 52 16 52 21 0 5 5 9 11 9 14 0 2 -73 -12 -78 -5 -2 6 -22 26 -44
20 -21 51 -63 69 -91 19 -29 43 -61 55 -71 11 -11 21 -23 21 -28 0 -5 14 -27
31 -48 24 -30 30 -45 25 -65 -6 -22 -9 -24 -26 -15 -11 6 -20 15 -20 20 0 6
-5 10 -11 10 -19 0 -67 62 -99 127 -16 34 -30 64 -30 67 0 3 -13 19 -28 35
-19 21 -31 28 -38 21 -16 -16 -76 -1 -69 17 4 11 1 13 -11 9 -8 -3 -18 -6 -20
-6 -2 0 -4 -6 -4 -13 0 -7 -9 -20 -20 -30 -11 -9 -20 -25 -20 -34 -1 -30 -32
-61 -90 -87 -30 -14 -60 -26 -66 -26 -7 0 -24 -6 -38 -14 -26 -13 -25 -13 34
-26 36 -8 60 -18 60 -26 0 -7 10 -16 22 -20 19 -6 12 -11 -42 -29 -36 -12 -73
-25 -83 -30 -10 -4 -29 -3 -43 4 -14 6 -34 11 -45 11 -22 0 -39 35 -39 81 0
28 2 29 48 30 43 1 45 1 20 11 -38 13 -35 28 15 64 119 86 114 81 127 136 17
73 25 85 89 148 53 51 104 115 107 133 1 4 2 12 3 17 0 6 10 10 21 10 25 0 27
20 3 21 -10 0 -31 3 -48 5 -28 4 -29 3 -12 -10 18 -14 18 -15 -5 -27 -22 -12
-64 -13 -100 -3 -16 5 -18 -3 -18 -61 0 -62 -2 -66 -27 -76 -19 -7 -23 -13
-15 -21 17 -17 -44 -98 -74 -98 -42 0 -60 75 -28 111 15 17 15 19 0 35 -12 11
-15 25 -10 49 6 33 -11 59 -25 36 -4 -6 -13 16 -20 48 -10 43 -18 61 -32 64
-67 18 67 106 161 107 19 0 61 6 92 14 32 7 60 10 64 7 3 -3 5 3 3 13 -4 16
-14 19 -83 21 -61 2 -82 -1 -95 -14 -16 -15 -71 -36 -158 -60 -49 -13 -50 -19
-24 -70 47 -91 90 -253 77 -287 -3 -7 -24 -27 -47 -44 -23 -16 -35 -30 -27
-30 9 0 21 -7 28 -15 7 -8 21 -15 31 -15 12 0 19 -7 19 -19 0 -11 4 -22 10
-26 17 -10 -1 -34 -36 -47 -19 -7 -33 -17 -30 -24 4 -11 -46 -10 -64 1 -5 3
-22 -9 -37 -27 -74 -85 -96 -97 -107 -55 -10 39 -6 93 8 113 14 19 15 19 45
-4 36 -26 41 -27 41 -6 0 8 13 29 29 44 48 48 49 110 2 110 -17 0 -91 -70 -91
-86 0 -25 -131 -57 -144 -35 -11 17 -68 -8 -61 -27 4 -10 -9 -29 -37 -55 -25
-23 -38 -41 -31 -44 7 -2 9 -11 7 -18 -3 -8 5 -24 19 -37 94 -88 131 -118 147
-118 20 0 60 -44 60 -67 0 -16 -70 -14 -92 4 -7 6 -35 14 -63 18 -30 4 -64 17
-85 33 -19 15 -41 30 -50 34 -13 6 -13 7 0 7 21 1 -40 41 -63 41 -10 0 -16 4
-13 9 9 13 -38 29 -70 23 -16 -3 -40 -12 -54 -20 -24 -14 -24 -13 3 11 45 43
30 52 -26 14 -94 -64 -102 -77 -65 -108 26 -23 36 -24 40 -3 2 11 16 18 43 21
45 5 55 11 36 22 -15 10 -6 31 13 31 7 0 23 -13 36 -30 24 -32 43 -40 34 -15
-8 19 10 19 26 0 16 -19 7 -42 -23 -56 -12 -6 -27 -20 -32 -31 -6 -12 -27 -30
-48 -41 -36 -19 -38 -19 -82 -1 -24 11 -49 28 -54 39 -7 14 -10 -33 -10 -152
-1 -147 1 -173 14 -173 8 0 15 -4 15 -10 0 -5 7 -10 16 -10 8 0 13 -4 9 -9 -9
-15 10 -22 70 -26 31 -3 65 -9 76 -15 11 -6 44 -10 72 -8 41 2 52 0 52 -12 0
-11 -9 -14 -30 -12 -24 3 -27 1 -18 -9 7 -6 26 -12 44 -11 23 0 33 -4 36 -19
3 -10 13 -20 22 -21 45 -5 88 -8 109 -9 12 -1 22 -7 22 -15 0 -8 8 -14 18 -14
14 0 15 -2 2 -10 -12 -8 -10 -10 8 -10 13 0 20 4 17 10 -4 6 -3 10 2 9 4 -1
20 1 35 5 48 14 54 -1 10 -22 -53 -24 -43 -33 43 -43 48 -6 61 -4 71 8 6 9 16
13 22 9 18 -11 14 -36 -5 -44 -13 -5 -7 -9 22 -13 39 -5 39 -6 15 -16 -31 -14
-23 -17 85 -34 85 -13 224 -58 190 -60 -11 -1 -4 -5 15 -8 19 -4 -71 -6 -200
-5 l-235 2 205 -9 c113 -5 228 -13 255 -19 28 -5 295 -8 620 -7 501 1 550 3
404 12 -125 7 -165 13 -162 23 3 7 25 12 56 13 l52 1 -44 11 -45 11 40 12 c26
8 32 12 17 13 -12 1 -25 6 -29 12 -5 8 2 10 21 6 37 -6 63 2 43 14 -8 5 12 9
52 11 36 1 74 3 85 4 11 1 33 2 48 3 25 1 28 4 25 29 -3 25 -7 27 -55 30 -33
2 -56 9 -65 19 -11 15 -11 16 7 9 11 -5 41 -10 68 -10 l47 -2 0 62 0 62 -43 6
c-48 7 -68 3 -112 -28 -29 -19 -29 -19 -16 -1 8 11 31 35 50 53 22 20 29 31
18 28 -11 -3 6 21 37 56 31 34 56 67 56 74 0 14 -66 74 -81 74 -5 0 -18 -15
-29 -33 -19 -32 -108 -113 -116 -105 -2 3 16 27 41 54 25 27 45 51 45 55 0 3
27 27 60 52 57 45 76 55 46 25 -12 -12 -10 -16 14 -25 l28 -11 1 165 1 165
-45 -25 c-25 -14 -45 -24 -45 -22 0 15 55 59 71 57 18 -3 19 4 18 95 l-1 98
-15 -50 c-9 -27 -17 -56 -19 -62 -5 -20 -41 -15 -69 9 -23 20 -25 27 -19 63
12 64 9 116 -6 125 -9 6 -14 30 -14 75 -1 64 1 68 32 95 l33 27 -21 42 c-12
22 -23 41 -25 41 -1 0 -12 -31 -24 -70 -12 -38 -27 -70 -32 -70 -5 0 -9 -8 -9
-19 0 -32 -24 -43 -43 -20 -14 16 -21 17 -38 9 -24 -13 -55 -5 -63 16 -3 8 9
45 28 82 23 47 35 87 39 132 5 58 4 63 -9 46 -8 -11 -14 -24 -14 -30 0 -5 -14
-21 -31 -35 -27 -23 -32 -35 -40 -100 -5 -40 -14 -80 -20 -87 -6 -7 -16 -35
-23 -61 -9 -36 -17 -49 -33 -51 -25 -4 -53 31 -53 65 0 13 -4 23 -10 23 -5 0
-10 9 -10 20 0 17 3 19 19 10 11 -5 32 -10 46 -10 l27 0 -25 30 c-21 25 -25
37 -20 68 l6 37 -27 -25 c-23 -21 -29 -22 -36 -10 -7 12 -14 12 -27 4 -30 -18
-43 -6 -43 42 0 24 -4 44 -10 44 -5 0 -10 7 -10 14 0 17 -68 72 -77 62 -3 -3
-1 -22 5 -42 11 -36 11 -36 -16 -29 -15 3 -34 13 -42 21 -13 12 -12 18 3 43
19 33 10 46 -26 36 -21 -7 -21 -6 -4 11 15 16 20 17 38 6 22 -14 39 -8 39 13
0 8 -24 20 -57 30 -32 9 -62 20 -68 25 -5 4 -21 11 -33 15 -22 6 -23 5 -17
-17z m-65 -268 c0 -5 -2 -10 -4 -10 -3 0 -8 5 -11 10 -3 6 -1 10 4 10 6 0 11
-4 11 -10z m748 -253 c5 -24 -24 -21 -31 4 -4 15 -1 19 11 17 9 -2 18 -11 20
-21z m-109 -89 c-15 -27 -42 -24 -33 5 4 12 12 25 18 29 16 10 26 -13 15 -34z
m-1292 26 c-3 -3 -12 -4 -19 -1 -8 3 -5 6 6 6 11 1 17 -2 13 -5z m1423 -55 c0
-19 -49 -86 -104 -145 -48 -49 -56 -55 -54 -34 3 22 -15 38 -56 53 -5 2 -1 18
8 37 20 41 96 100 140 110 32 7 66 -3 66 -21z m-238 13 c15 -6 14 -11 -11 -39
-21 -25 -37 -33 -61 -33 -25 0 -31 3 -26 16 3 9 6 20 6 24 0 10 49 39 65 39 6
0 18 -3 27 -7z m-328 -61 c-30 -42 -49 -48 -49 -15 0 12 6 18 18 18 9 -1 17 2
17 6 0 12 31 42 37 36 3 -3 -8 -23 -23 -45z m-664 15 c0 -3 -4 -8 -10 -11 -5
-3 -10 -1 -10 4 0 6 5 11 10 11 6 0 10 -2 10 -4z m852 -95 c38 -9 86 -44 121
-87 23 -30 11 -50 -35 -56 -21 -4 -37 1 -50 14 -10 10 -22 18 -27 18 -5 0 -23
17 -40 37 -23 27 -28 39 -19 45 9 5 6 8 -9 8 -23 0 -29 10 -16 23 8 9 30 8 75
-2z m-394 -40 c7 -9 12 -29 10 -46 -2 -24 -11 -34 -44 -50 -23 -11 -49 -26
-58 -34 -13 -11 -22 -11 -45 -1 -16 6 -39 9 -52 5 -12 -4 -24 -2 -29 4 -9 15
-40 3 -40 -16 0 -10 7 -13 23 -9 l22 6 -22 -11 c-26 -14 -30 -29 -8 -29 18 0
20 -16 3 -26 -6 -4 -31 -6 -55 -5 -31 1 -45 -3 -49 -14 -4 -8 -15 -15 -26 -15
-13 0 -17 -4 -11 -12 4 -7 -6 -5 -21 6 -16 10 -26 14 -22 8 7 -12 -19 -23 -38
-16 -8 3 -17 0 -21 -5 -3 -6 -10 -9 -15 -6 -5 3 -11 1 -15 -5 -3 -5 -17 -10
-31 -10 -13 0 -24 -5 -24 -12 0 -9 -3 -9 -12 0 -14 14 -98 16 -98 3 0 -15 -62
-42 -82 -35 -15 4 -18 -1 -19 -28 -1 -18 0 -37 1 -43 1 -5 -2 -6 -7 -2 -4 5
-8 14 -8 20 0 7 -9 13 -20 15 -16 2 -17 1 -5 -7 12 -8 11 -10 -7 -8 -12 0 -19
5 -16 10 3 5 -5 6 -18 2 -19 -5 -21 -4 -9 4 8 6 24 11 35 12 11 0 14 3 7 6 -6
2 -10 9 -6 14 9 16 -12 10 -39 -11 l-25 -20 5 20 c3 11 16 23 29 26 19 5 22 9
13 20 -9 11 -5 16 15 25 14 7 23 15 21 19 -2 4 7 5 20 2 14 -2 28 -8 31 -13 3
-5 2 -8 -3 -7 -4 2 -9 -1 -10 -6 -1 -5 -7 -13 -15 -17 -9 -6 -9 -9 -1 -9 6 0
14 4 18 9 3 6 20 17 38 26 50 26 356 145 417 163 30 9 57 19 60 22 3 4 12 9
20 13 8 4 22 11 30 17 8 5 31 17 50 25 19 9 51 25 70 35 37 21 67 18 88 -9z
m815 -31 c16 -19 15 -21 -10 -45 -15 -13 -52 -38 -83 -54 -31 -17 -72 -44 -91
-60 -19 -17 -40 -31 -47 -31 -7 0 -10 -4 -7 -10 7 -11 55 -9 55 2 0 5 12 13
26 18 14 6 42 22 62 38 l37 27 -23 -30 c-13 -16 -36 -40 -52 -53 -24 -20 -28
-30 -23 -53 3 -18 1 -29 -6 -29 -6 0 -11 -9 -11 -20 0 -16 -7 -20 -30 -20 -16
0 -30 3 -30 8 0 4 -15 8 -32 8 -63 3 -142 26 -173 50 -18 13 -39 24 -48 24
-10 0 -16 3 -15 8 5 15 -35 63 -48 58 -8 -3 -14 -1 -14 5 0 7 -12 8 -30 4 -22
-5 -46 1 -94 24 -67 32 -90 51 -59 51 68 -1 344 -60 399 -86 18 -9 38 -13 43
-9 6 3 11 2 11 -3 0 -21 33 -22 47 -2 8 11 19 18 24 14 5 -3 38 20 73 50 34
31 66 53 69 49 4 -3 7 -2 7 4 0 6 14 16 30 22 17 5 30 15 30 22 0 6 -7 9 -15
5 -17 -6 -18 -4 -9 18 8 21 16 20 37 -4z m-133 -54 c0 -2 -8 -10 -17 -17 -16
-13 -17 -12 -4 4 13 16 21 21 21 13z m-1670 -42 c0 -3 -13 -10 -30 -15 -16 -6
-30 -15 -30 -21 0 -5 6 -6 13 -1 24 15 50 14 44 -1 -4 -10 -1 -13 7 -10 7 3
13 -2 13 -10 0 -8 -7 -12 -16 -9 -12 3 -12 2 2 -7 20 -13 40 -4 31 13 -3 7 2
3 10 -7 11 -13 12 -23 6 -31 -5 -7 -8 -14 -5 -17 3 -3 -3 -11 -12 -19 -16 -13
-17 -12 -5 2 10 14 10 18 -4 23 -9 4 -19 4 -22 1 -3 -3 1 -5 8 -5 21 0 -9 -28
-35 -32 -11 -2 -23 -7 -26 -12 -9 -11 -31 3 -24 15 4 5 -1 9 -9 9 -8 0 -18 5
-22 12 -5 7 -3 8 6 3 9 -5 11 -4 6 4 -6 9 -11 9 -22 0 -12 -10 -18 -9 -31 4
-9 9 -15 18 -12 20 2 1 25 19 51 40 53 43 108 69 108 51z m1590 -24 c-14 -10
-27 -16 -30 -13 -3 3 1 8 8 10 7 3 18 11 25 18 7 7 14 11 17 8 3 -2 -6 -13
-20 -23z m180 16 c0 -3 -4 -8 -10 -11 -5 -3 -10 -1 -10 4 0 6 5 11 10 11 6 0
10 -2 10 -4z m-973 -42 c-3 -3 -12 -4 -19 -1 -8 3 -5 6 6 6 11 1 17 -2 13 -5z
m-592 -24 c3 -6 -4 -10 -17 -10 -18 0 -20 2 -8 10 19 12 18 12 25 0z m45 -20
c0 -5 -8 -10 -17 -10 -15 0 -16 2 -3 10 19 12 20 12 20 0z m-156 -39 c4 -5 -4
-7 -16 -5 -13 2 -17 2 -10 -2 6 -3 9 -11 5 -17 -6 -10 -1 -9 43 9 25 11 8 -29
-19 -42 -16 -9 -27 -12 -24 -6 4 5 0 9 -8 9 -8 0 -12 -4 -9 -9 3 -4 0 -8 -5
-8 -6 0 -11 7 -11 15 0 9 -10 16 -22 16 -18 1 -16 3 7 8 17 3 31 12 31 19 1 6
2 14 3 17 2 9 30 5 35 -4z m914 -15 c5 -26 -5 -46 -21 -41 -10 4 -16 44 -8 63
3 10 26 -7 29 -22z m248 -121 c-11 -8 -25 -15 -30 -15 -6 0 -2 7 8 15 11 8 25
15 30 15 6 0 2 -7 -8 -15z m93 12 c-2 -1 -13 -9 -24 -17 -19 -14 -19 -14 -6 3
7 9 18 17 24 17 6 0 8 -1 6 -3z m61 -22 c0 -7 -8 -19 -17 -24 -10 -6 -12 -11
-5 -11 6 0 12 -7 12 -15 0 -8 4 -15 8 -15 15 0 44 38 38 48 -3 5 3 12 14 15
38 10 20 -19 -52 -88 -40 -38 -66 -65 -58 -60 18 11 -67 -89 -109 -128 -17
-16 -31 -33 -31 -38 0 -12 17 -3 47 24 13 11 26 17 30 14 3 -4 -5 -17 -19 -30
-14 -13 -29 -30 -34 -38 -5 -7 -19 -20 -31 -26 -21 -12 -22 -11 -19 17 3 29 3
29 -25 14 -16 -8 -29 -11 -29 -7 0 4 -5 2 -12 -5 -27 -27 -29 -10 -2 19 23 24
25 29 9 23 -11 -4 -25 -12 -30 -19 -12 -15 -76 -30 -74 -18 4 24 -1 37 -12 26
-8 -8 -16 -7 -30 5 -17 15 -17 17 -2 34 15 17 15 18 -2 18 -10 0 -15 -3 -12
-6 4 -4 -9 -15 -28 -25 -41 -22 -57 -25 -30 -5 18 13 18 14 -3 25 -17 9 -27 9
-44 0 -18 -10 -20 -9 -15 5 4 9 1 16 -6 16 -8 0 -6 4 3 10 8 5 11 10 5 10 -12
0 26 23 78 46 20 9 37 22 37 29 0 7 11 16 25 19 14 4 23 11 20 16 -3 5 9 19
27 30 24 14 34 16 40 7 6 -9 8 -8 9 3 1 8 1 18 0 22 0 4 5 5 12 2 7 -2 31 9
52 26 21 16 41 30 46 30 16 0 19 -18 3 -24 -10 -4 -13 -2 -8 6 4 7 3 8 -5 4
-6 -4 -9 -11 -6 -15 2 -5 -4 -16 -15 -26 -11 -10 -20 -15 -20 -12 0 4 -11 -3
-24 -14 -13 -12 -28 -21 -33 -22 -4 0 -17 -9 -28 -20 -11 -10 -35 -30 -52 -44
-18 -14 -30 -29 -27 -34 3 -5 -2 -6 -10 -3 -9 3 -16 1 -16 -5 0 -18 25 -13 45
9 14 16 21 18 28 8 6 -10 8 -9 4 2 -4 17 38 54 52 45 5 -3 12 -1 16 5 3 5 1
10 -5 10 -6 0 -8 5 -5 11 4 6 14 8 22 5 8 -3 11 -1 8 4 -3 6 2 13 12 17 10 3
25 12 33 18 8 7 28 15 44 19 15 4 26 10 22 13 -7 8 46 54 58 50 22 -7 15 -26
-19 -47 -19 -12 -54 -38 -78 -57 -23 -20 -59 -47 -80 -60 -21 -13 -35 -28 -32
-33 3 -5 0 -12 -6 -16 -8 -5 -9 -3 -4 5 11 19 -28 -4 -46 -26 -12 -16 -12 -17
2 -6 9 7 18 10 22 7 8 -8 58 27 51 37 -3 5 1 7 8 4 7 -3 27 4 43 15 17 11 24
20 18 20 -7 0 -13 5 -13 11 0 6 6 9 14 6 8 -3 17 1 20 9 3 9 10 13 15 9 5 -3
13 0 17 6 5 8 3 9 -7 4 -8 -5 -11 -4 -6 1 5 5 16 9 25 9 9 0 17 7 17 15 1 8 7
14 14 12 8 -2 25 11 38 27 14 16 31 27 38 24 8 -2 24 5 36 16 27 25 39 27 39
6z m-755 -25 c-3 -5 0 -10 7 -10 7 -1 0 -12 -17 -26 l-30 -26 32 16 c17 9 33
21 36 28 3 7 4 3 4 -9 -1 -12 -3 -20 -6 -17 -2 2 -15 -6 -28 -18 -13 -12 -23
-18 -23 -14 0 5 -7 3 -15 -4 -8 -7 -12 -16 -10 -21 3 -4 26 6 50 23 29 21 57
32 81 32 24 1 39 6 41 16 3 9 1 11 -4 5 -13 -16 -31 -16 -37 0 -3 9 0 12 10 8
8 -3 20 0 28 6 18 15 43 -13 29 -31 -11 -15 -11 -28 0 -45 4 -7 -4 -22 -20
-37 -15 -14 -24 -26 -19 -26 5 0 1 -9 -9 -20 -10 -11 -25 -20 -34 -20 -14 0
-14 2 -1 10 13 9 12 11 -5 10 -3 0 -12 5 -19 12 -10 10 -11 15 -2 20 10 7 -34
13 -58 9 -4 -1 -14 3 -20 9 -7 5 -17 6 -21 2 -5 -4 -5 -2 -1 5 10 17 -12 27
-30 12 -8 -6 -17 -9 -21 -5 -3 3 -1 6 5 6 7 0 11 6 10 13 -2 6 3 11 11 9 8 -2
21 0 29 3 11 4 12 8 2 20 -10 12 -9 15 4 15 11 0 14 5 10 12 -5 8 -12 5 -23
-8 -20 -25 -51 -38 -51 -21 0 8 -3 9 -8 1 -4 -6 -18 -17 -31 -24 -21 -11 -23
-10 -18 4 6 16 -8 21 -42 16 -12 -1 -13 1 -2 13 10 13 9 15 -11 11 -13 -2 -17
-2 -10 2 6 3 9 11 6 16 -5 7 -2 8 6 3 21 -13 94 -14 102 -1 5 7 8 6 8 -4 0
-13 2 -13 9 -1 8 12 12 12 25 2 15 -13 21 -8 16 14 -1 5 8 1 19 -9 20 -18 34
-16 37 5 2 16 4 19 10 19 3 0 2 -4 -1 -10z m185 -6 c0 -8 -19 -13 -24 -6 -3 5
1 9 9 9 8 0 15 -2 15 -3z m250 -2 c0 -4 -22 -21 -50 -37 -27 -16 -50 -33 -50
-38 0 -4 -4 -6 -8 -3 -5 3 -22 -9 -38 -25 -16 -17 -45 -42 -64 -55 -19 -13
-44 -31 -56 -39 -19 -14 -21 -14 -21 2 0 22 15 43 31 43 6 0 2 -7 -8 -15 -11
-8 -15 -15 -10 -15 15 0 33 21 30 34 -2 6 -1 8 1 4 4 -7 83 40 83 49 0 2 -4 1
-10 -2 -5 -3 -10 -1 -10 5 0 7 8 9 21 5 16 -6 20 -4 14 6 -5 8 -5 11 -1 7 8
-6 98 44 124 69 15 15 22 16 22 5z m-157 -30 c-10 -7 -28 -15 -40 -19 -13 -3
-23 -9 -23 -14 0 -5 -8 -9 -17 -9 -12 0 -14 -3 -6 -8 8 -5 3 -14 -17 -27 -17
-11 -30 -23 -30 -27 0 -5 -8 -8 -17 -8 -12 0 -7 9 17 30 18 17 27 30 20 30 -8
0 1 11 20 25 18 13 37 22 41 19 5 -3 14 -2 20 2 8 4 7 9 -2 15 -9 5 -3 8 19 6
29 -2 30 -3 15 -15z m-402 -45 c-6 -8 -8 -17 -4 -21 4 -4 0 -4 -10 0 -17 6
-17 7 0 20 23 17 28 18 14 1z m256 -102 c0 -8 -4 -12 -9 -9 -5 3 -6 10 -3 15
9 13 12 11 12 -6z m528 -45 c-3 -5 -12 -10 -18 -10 -7 0 -6 4 3 10 19 12 23
12 15 0z m-470 -50 c3 -5 2 -10 -4 -10 -5 0 -13 5 -16 10 -3 6 -2 10 4 10 5 0
13 -4 16 -10z m410 -82 c4 4 2 -3 -4 -15 -11 -22 -41 -32 -41 -14 0 25 13 41
25 31 6 -5 15 -6 20 -2z m-25 -72 c0 -2 -8 -10 -17 -17 -16 -13 -17 -12 -4 4
13 16 21 21 21 13z"/>
<path d="M239 741 c-31 -25 -21 -35 11 -11 14 10 22 21 19 25 -3 3 -17 -3 -30
-14z"/>
<path d="M1715 480 c-4 -6 -12 -9 -17 -8 -6 2 -21 -5 -33 -16 -11 -12 -41 -38
-65 -58 -25 -21 -42 -38 -39 -38 4 0 29 18 55 40 27 22 54 40 60 40 6 0 17 7
24 15 21 25 33 17 15 -11 -16 -25 -16 -25 4 -15 29 16 34 29 17 46 -10 10 -17
12 -21 5z"/>
<path d="M1406 364 c-23 -23 -20 -30 4 -9 11 10 20 20 20 22 0 7 -9 2 -24 -13z"/>
<path d="M1604 358 c-15 -18 -15 -20 -2 -9 10 7 23 11 30 9 6 -2 -12 -23 -41
-46 -29 -23 -58 -39 -63 -35 -6 3 -8 1 -4 -5 3 -6 -1 -17 -9 -25 -11 -12 -12
-16 -2 -20 17 -6 69 32 61 45 -4 7 -2 8 5 4 6 -4 14 0 18 11 4 10 23 33 42 51
20 18 30 30 23 27 -7 -4 -19 -2 -26 4 -10 8 -18 5 -32 -11z"/>
<path d="M1464 298 c-49 -37 -90 -78 -77 -78 6 0 20 -3 30 -6 16 -6 16 -5 -2
10 -11 9 -15 15 -10 14 6 -1 30 16 55 40 49 46 51 55 4 20z"/>
<path d="M1474 255 c-10 -8 -14 -14 -9 -14 6 0 19 6 29 14 11 8 15 15 10 15
-6 0 -19 -7 -30 -15z"/>
<path d="M1136 487 c3 -10 9 -15 12 -12 3 3 0 11 -7 18 -10 9 -11 8 -5 -6z"/>
<path d="M1087 423 c-27 -19 -34 -29 -27 -38 5 -6 6 -16 2 -20 -11 -13 51 26
67 42 7 8 10 17 6 21 -4 4 -18 -6 -31 -22 -14 -15 -27 -26 -30 -23 -3 2 11 18
31 36 43 37 34 40 -18 4z"/>
<path d="M2236 1709 c-11 -22 -13 -37 -6 -49 7 -13 6 -19 -4 -23 -8 -3 -16
-16 -18 -29 -2 -17 -9 -23 -28 -23 -30 0 -38 -26 -15 -48 8 -9 15 -20 14 -24
-4 -21 3 -31 26 -41 25 -11 26 -15 20 -70 -5 -46 -1 -71 19 -127 l25 -70 0
268 c1 157 -3 267 -8 267 -5 0 -17 -14 -25 -31z"/>
<path d="M1125 1680 c8 -14 54 -18 48 -5 -2 7 -15 13 -28 13 -14 0 -23 -4 -20
-8z"/>
<path d="M338 1632 c-4 -14 -18 -21 -51 -25 -74 -10 -127 -36 -127 -61 0 -12
-9 -41 -21 -65 -27 -57 -16 -71 56 -67 57 4 87 20 139 75 24 25 27 33 16 46
-9 10 -11 31 -6 65 7 49 3 67 -6 32z"/>
<path d="M695 1639 c-4 -6 -5 -13 -2 -16 7 -7 27 6 27 18 0 12 -17 12 -25 -2z"/>
<path d="M1014 1569 c-4 -7 -21 -9 -40 -6 -25 4 -34 2 -34 -9 0 -9 11 -14 33
-14 18 0 42 -7 53 -15 10 -8 24 -14 29 -15 6 0 4 4 -4 9 -22 14 22 24 69 16
25 -4 40 -3 40 4 0 5 -20 13 -45 17 -25 3 -45 10 -45 15 0 13 -48 11 -56 -2z"/>
<path d="M689 1488 c4 -28 6 -29 9 -9 2 13 0 27 -5 32 -6 6 -7 -3 -4 -23z"/>
<path d="M520 1501 c0 -5 5 -13 10 -16 6 -3 10 -2 10 4 0 5 -4 13 -10 16 -5 3
-10 2 -10 -4z"/>
<path d="M460 1470 c0 -5 5 -10 10 -10 6 0 10 5 10 10 0 6 -4 10 -10 10 -5 0
-10 -4 -10 -10z"/>
<path d="M701 1424 c0 -11 3 -14 6 -6 3 7 2 16 -1 19 -3 4 -6 -2 -5 -13z"/>
<path d="M80 1394 c0 -8 5 -12 10 -9 6 4 8 11 5 16 -9 14 -15 11 -15 -7z"/>
<path d="M35 1360 c-3 -5 -1 -10 4 -10 6 0 11 5 11 10 0 6 -2 10 -4 10 -3 0
-8 -4 -11 -10z"/>
<path d="M609 1317 c-9 -7 -14 -18 -12 -24 3 -7 0 -13 -6 -13 -6 0 -11 -5 -11
-12 0 -13 38 19 51 44 11 21 1 23 -22 5z"/>
<path d="M510 1215 c-20 -24 -6 -28 15 -5 10 11 13 20 8 20 -6 0 -16 -7 -23
-15z"/>
<path d="M27 1114 c-3 -3 -3 -13 0 -22 5 -11 2 -14 -8 -10 -11 4 -15 -6 -17
-48 -2 -30 1 -54 5 -54 11 0 135 102 129 107 -2 2 -21 -5 -42 -16 -21 -12 -42
-21 -46 -21 -18 0 -5 19 29 43 21 15 32 27 26 27 -7 0 -15 -5 -18 -10 -4 -7
-12 -7 -25 0 -22 12 -25 12 -33 4z"/>
<path d="M85 1013 c-58 -41 -88 -69 -84 -81 5 -14 116 68 122 91 6 21 9 22
-38 -10z"/>
<path d="M2256 475 c-3 -8 -1 -15 4 -15 6 0 10 7 10 15 0 8 -2 15 -4 15 -2 0
-6 -7 -10 -15z"/>
<path d="M30 384 l-25 -14 33 0 c17 0 32 4 32 9 0 17 -14 18 -40 5z"/>
<path d="M171 381 c-10 -6 -10 -10 -1 -16 13 -8 24 -1 19 14 -3 6 -10 7 -18 2z"/>
<path d="M90 280 c0 -5 5 -10 10 -10 6 0 10 5 10 10 0 6 -4 10 -10 10 -5 0
-10 -4 -10 -10z"/>
<path d="M43 233 c9 -2 25 -2 35 0 9 3 1 5 -18 5 -19 0 -27 -2 -17 -5z"/>
<path d="M108 233 c7 -3 16 -2 19 1 4 3 -2 6 -13 5 -11 0 -14 -3 -6 -6z"/>
<path d="M170 205 c-10 -13 -9 -15 9 -15 11 0 21 4 21 9 0 18 -18 21 -30 6z"/>
<path d="M420 210 c0 -13 18 -22 24 -11 3 5 -1 11 -9 15 -8 3 -15 1 -15 -4z"/>
<path d="M517 126 c-4 -10 0 -12 14 -9 22 6 26 23 5 23 -8 0 -16 -6 -19 -14z"/>
<path d="M48 73 c12 -2 32 -2 45 0 12 2 2 4 -23 4 -25 0 -35 -2 -22 -4z"/>
<path d="M278 73 c6 -2 18 -2 25 0 6 3 1 5 -13 5 -14 0 -19 -2 -12 -5z"/>
<path d="M220 40 c-13 -8 -12 -10 3 -10 9 0 17 5 17 10 0 12 -1 12 -20 0z"/>
<path d="M475 39 c-4 -6 -5 -13 -2 -16 7 -7 27 6 27 18 0 12 -17 12 -25 -2z"/>
<path d="M177 33 c-4 -3 -7 -11 -7 -17 0 -6 5 -5 12 2 6 6 9 14 7 17 -3 3 -9
2 -12 -2z"/>
<path d="M418 33 c7 -3 16 -2 19 1 4 3 -2 6 -13 5 -11 0 -14 -3 -6 -6z"/>
<path d="M546 24 c-8 -22 -8 -26 5 -22 6 2 10 7 9 12 -1 5 4 13 12 17 10 7 9
9 -3 9 -9 0 -20 -7 -23 -16z"/>
<path d="M7 3 c7 -2 19 -2 26 0 6 3 1 5 -13 5 -14 0 -19 -2 -13 -5z"/>
</g>
</svg>
